<svg id="Capa_1" enable-background="new 0 0 512 512" height="100%" viewBox="0 0 512 512" width="100%" xmlns="http://www.w3.org/2000/svg"><g><g><path d="m265.451 512 186.12-214.629h-93.885v-297.371h-182.84v1.075h-1.63v296.296h-93.884z" fill="#6260d0"/><path d="m265.451 512v-512h-90.605v1.075h-1.63v296.296h-93.884z" fill="#7d89e5"/></g><g><g><g><g><g><path d="m173.214 225.57c-62.19 0-112.785-50.595-112.785-112.785s50.595-112.785 112.785-112.785 62.189 225.57 0 225.57z" fill="#fde01d"/></g></g></g></g><g><path d="m173.214 0v225.57c62.19 0 112.785-50.595 112.785-112.785s-50.596-112.785-112.785-112.785z" fill="#fed330"/></g><g><g><path d="m161.497 93.077c0-3.323 3.046-6.093 12.601-6.093 8.447 0 17.447 2.354 27.002 7.201l9.832-23.679c-7.893-4.431-17.863-7.062-28.11-8.031v-14.818h-19.525v15.094c-22.709 3.185-34.064 16.34-34.064 31.987 0 36.142 53.589 26.31 53.589 38.496 0 3.323-3.323 5.262-12.601 5.262-10.663 0-22.848-3.462-31.987-8.862l-10.524 23.817c8.308 5.124 21.74 8.862 35.587 9.693v14.678h19.525v-15.371c21.463-3.739 32.264-16.755 32.264-31.71-.001-35.726-53.589-26.032-53.589-37.664z" fill="#fd8d34"/></g><g fill="#fd6e2e"><path d="m182.821 162.452c21.463-3.739 32.264-16.755 32.264-31.71 0-24.935-26.102-27.745-41.872-31.122v27.223c5.7 1.418 9.608 3.103 9.608 6.391 0 2.937-2.603 4.79-9.608 5.182v39.407h9.608z"/><path d="m201.1 94.185 9.832-23.679c-7.893-4.431-17.863-7.062-28.11-8.031v-14.818h-9.608v39.343c.294-.006.576-.016.884-.016 8.446 0 17.447 2.354 27.002 7.201z"/></g></g></g></g></svg>