<svg id="Capa_1" enable-background="new 0 0 512 512" height="512" viewBox="0 0 512 512" width="512" xmlns="http://www.w3.org/2000/svg"><g><g><path clip-rule="evenodd" d="m325.778 406.46-68.654-22.427-70.902 22.427-17.755 54.739 87.518 18.845 87.519-18.845z" fill="#818b95" fill-rule="evenodd"/></g><g><path clip-rule="evenodd" d="m0 61.5v295.651h91.461l94.381-257.727-12.791-43.734h-73.56-93.826c-3.124 0-5.665 2.599-5.665 5.81z" fill="#c3ddff" fill-rule="evenodd"/></g><g><path clip-rule="evenodd" d="m422.788 357.151h89.212v-295.651c0-3.211-2.57-5.81-5.665-5.81h-93.855-71.282l-43.686 43.733z" fill="#c3ddff" fill-rule="evenodd"/></g><g><path clip-rule="evenodd" d="m343.504 461.199h-175.037-16.47c-10.454 0-18.981 8.525-18.981 18.947v14.159c0 2.627 2.161 4.817 4.818 4.817h236.332c2.628 0 4.789-2.19 4.789-4.817v-14.159c0-10.422-8.527-18.947-18.952-18.947z" fill="#eceaed" fill-rule="evenodd"/></g><g><path clip-rule="evenodd" d="m467.379 61.5v295.651h44.621v-295.651c0-3.211-2.57-5.81-5.665-5.81h-44.621c3.125 0 5.665 2.599 5.665 5.81z" fill="#c3ddff" fill-rule="evenodd"/></g><g><path clip-rule="evenodd" d="m186.222 406.46-6.483 19.969h125.393l11.273 34.77h27.099l-17.726-54.739z" fill="#576b74" fill-rule="evenodd"/></g><g><path clip-rule="evenodd" d="m107.493 99.423c-2.511 0-4.088 2.627-4.556 5.722l-11.476 74.445 164.539 26.831 166.788-26.83-11.476-74.445c-.467-3.095-2.044-5.722-4.555-5.722-118.737-.001-180.529-.001-299.264-.001z" fill="#ffc89f" fill-rule="evenodd"/></g><g><path clip-rule="evenodd" d="m422.788 179.591h-331.327v177.56l165.663 18.35 165.664-18.35z" fill="#f7b081" fill-rule="evenodd"/></g><g><path clip-rule="evenodd" d="m422.788 357.151h-331.327-91.461v43.5c0 3.182 2.541 5.81 5.665 5.81h180.556 139.557 180.556c3.095 0 5.665-2.627 5.665-5.81v-43.5z" fill="#eceaed" fill-rule="evenodd"/></g><g><path clip-rule="evenodd" d="m360.003 461.199h-32.998-10.6c10.425 0 18.952 8.525 18.952 18.947v14.159c0 2.627-2.161 4.817-4.818 4.817h43.628c2.628 0 4.789-2.19 4.789-4.817v-14.159c-.001-10.422-8.528-18.947-18.953-18.947z" fill="#dad8db" fill-rule="evenodd"/></g><g><path clip-rule="evenodd" d="m467.379 357.151v43.5c0 3.182-2.511 5.81-5.636 5.81h.029 44.562c3.095 0 5.665-2.627 5.665-5.81v-43.5z" fill="#dad8db" fill-rule="evenodd"/></g><g><path clip-rule="evenodd" d="m395.396 179.591h27.392v177.56h-27.392z" fill="#db9975" fill-rule="evenodd"/></g><g><path clip-rule="evenodd" d="m383.92 105.145 11.476 74.445h27.392l-11.476-74.445c-.467-3.095-2.044-5.722-4.555-5.722h-27.392c-2.483 0 4.058 2.628 4.555 5.722z" fill="#fcb788" fill-rule="evenodd"/></g><g><path clip-rule="evenodd" d="m378.868 243.205h-235.223c-2.219 0-4.001 1.781-4.001 3.97v52.55c0 2.19 1.781 4 4.001 4h235.223c2.19 0 4.001-1.81 4.001-4v-52.55c-.001-2.189-1.811-3.97-4.001-3.97z" fill="#eceaed" fill-rule="evenodd"/></g><g><path clip-rule="evenodd" d="m359.302 247.176v52.55c0 2.19-1.811 4-4.001 4h23.566c2.19 0 4.001-1.81 4.001-4v-52.55c0-2.19-1.811-3.97-4.001-3.97h-23.566c2.191-.001 4.001 1.78 4.001 3.97z" fill="#dad8db" fill-rule="evenodd"/></g><g><path d="m339.591 147.233h-164.933c-4.268 0-7.726-3.459-7.726-7.726s3.459-7.726 7.726-7.726h164.933c4.268 0 7.726 3.459 7.726 7.726s-3.459 7.726-7.726 7.726z" fill="#576b74"/></g><g><path clip-rule="evenodd" d="m185.842 99.423c.38.438.788.905 1.197 1.343l35.918 37.169c.971 1.004 2.307 1.572 3.704 1.572h60.924c1.397 0 2.734-.567 3.705-1.572l16.587-17.171 19.332-19.998c.409-.438.818-.905 1.226-1.343 10.425-12.116 14.689-28.318 12.761-43.733-1.372-11.24-6.045-22.071-13.988-30.654-17.492-18.918-45.789-14.188-64.478 3.387-3.446 3.27-4.672 4.875-5.607 4.875s-2.132-1.606-5.607-4.875c-18.689-17.575-46.957-22.304-64.478-3.387-7.943 8.583-12.586 19.414-13.988 30.654-1.926 15.415 2.338 31.618 12.792 43.733z" fill="#ff8086" fill-rule="evenodd"/></g><g><path clip-rule="evenodd" d="m294.561 25.036c7.943 8.583 12.615 19.414 14.017 30.654 1.927 15.415-2.336 31.617-12.79 43.733-.409.438-.818.905-1.227 1.343l-37.437 38.741h30.462c1.397 0 2.734-.567 3.705-1.572l16.587-17.171 19.332-19.998c.409-.438.818-.905 1.226-1.343 10.425-12.116 14.689-28.318 12.761-43.733-1.372-11.24-6.045-22.071-13.988-30.654-12.09-13.05-29.319-14.86-44.971-8.904 4.468 1.985 8.644 4.905 12.323 8.904z" fill="#e5646e" fill-rule="evenodd"/></g></g></svg>