<svg height="100%" viewBox="0 0 64 64" width="100%" xmlns="http://www.w3.org/2000/svg" xmlns:xlink="http://www.w3.org/1999/xlink"><linearGradient id="New_Gradient_Swatch_3" gradientUnits="userSpaceOnUse" x1="32" x2="32" y1="66.793" y2=".259"><stop offset="0" stop-color="#006df0"/><stop offset="1" stop-color="#00e7f0"/></linearGradient><linearGradient id="New_Gradient_Swatch_3-2" x1="38.5" x2="38.5" xlink:href="#New_Gradient_Swatch_3" y1="66.793" y2=".259"/><linearGradient id="New_Gradient_Swatch_3-3" x1="38" x2="38" xlink:href="#New_Gradient_Swatch_3" y1="66.793" y2=".259"/><g id="Safe_box-3" data-name="Safe box"><path d="m59 6h-42a3 3 0 0 0 -3 3l-2.055-1.541a3 3 0 0 0 -5.945.541v17h-1a3 3 0 0 0 -3 3v7a3 3 0 0 0 3 3h1v18a3 3 0 0 0 5.945.541l2.055-1.541a3 3 0 0 0 3 3v3a1 1 0 0 0 1 1h8a1 1 0 0 0 1-1v-3h18v3a1 1 0 0 0 1 1h8a1 1 0 0 0 1-1v-3h4a3 3 0 0 0 3-3v-46a3 3 0 0 0 -3-3zm-39 6h36v40h-36zm-15 24a1 1 0 0 1 -1-1v-7a1 1 0 0 1 1-1h1v9zm4 21a1 1 0 0 1 -1-1v-48a1 1 0 0 1 2 0v48a1 1 0 0 1 -1 1zm3-47 6 4.5v35l-6 4.5zm13 50h-6v-2h6zm28 0h-6v-2h6zm7-5a1 1 0 0 1 -1 1h-42a1 1 0 0 1 -1-1v-1.5l2-1.5v1a1 1 0 0 0 1 1h38a1 1 0 0 0 1-1v-42a1 1 0 0 0 -1-1h-38a1 1 0 0 0 -1 1v1l-2-1.5v-1.5a1 1 0 0 1 1-1h42a1 1 0 0 1 1 1z" fill="url(#New_Gradient_Swatch_3)"/><path d="m54 40v-3a1 1 0 0 0 -1-1h-8.381a12 12 0 1 0 -13.238 0h-8.381a1 1 0 0 0 -1 1v4a1 1 0 0 0 1 1v2a1 1 0 0 0 -1 1v4a1 1 0 0 0 1 1h30a1 1 0 0 0 1-1v-3a1 1 0 0 0 1-1v-4a1 1 0 0 0 -1-1zm-21-2h1v2h-1zm11 2h-1v-2h1zm-3 0h-5v-2h5zm-7 2h1v2h-1zm7 4v2h-5v-2zm-4-2v-2h5v2zm7-2h1v2h-1zm3 0h6v2h-6zm5-2h-6v-2h6zm-24-14a10 10 0 1 1 10 10 10.011 10.011 0 0 1 -10-10zm-4 12h7v2h-7zm1 4h7v2h-7zm-1 4h7v2h-7zm9 2v-2h1v2zm10 0v-2h1v2zm9 0h-6v-2h6z" fill="url(#New_Gradient_Swatch_3-2)"/><g fill="url(#New_Gradient_Swatch_3-3)"><path d="m39 31v-.184a2.993 2.993 0 0 0 -1-5.816 1 1 0 1 1 1-1 1 1 0 0 0 2 0 3 3 0 0 0 -2-2.816v-.184a1 1 0 0 0 -2 0v.184a2.993 2.993 0 0 0 1 5.816 1 1 0 1 1 -1 1 1 1 0 0 0 -2 0 3 3 0 0 0 2 2.816v.184a1 1 0 0 0 2 0z"/><path d="m47 26a9 9 0 1 0 -9 9 9.011 9.011 0 0 0 9-9zm-16 0a7 7 0 1 1 7 7 7.008 7.008 0 0 1 -7-7z"/></g></g></svg>