<svg id="Capa_1" enable-background="new 0 0 512 512" height="100%" viewBox="0 0 512 512" width="100%" xmlns="http://www.w3.org/2000/svg"><g><g><path d="m447 262h-382c-6.561 0-12.36-4.264-14.317-10.526l-50-160c-1.423-4.554-.595-9.514 2.232-13.359s7.313-6.115 12.085-6.115h482c4.771 0 9.259 2.271 12.085 6.115 2.827 3.845 3.655 8.805 2.232 13.358l-50 160c-1.956 6.264-7.756 10.527-14.317 10.527z" fill="#38336b"/><g><path d="m509.085 78.115c-2.826-3.844-7.313-6.115-12.085-6.115h-241v190h191c6.561 0 12.36-4.264 14.317-10.526l50-160c1.424-4.554.595-9.514-2.232-13.359z" fill="#2e2654"/></g><path d="m76.028 232-40.625-130h441.194l-40.624 130z" fill="#ffe196"/><path d="m256 232h179.973l40.624-130h-220.597z" fill="#ffb454"/></g><g><path d="m407 512h-302l-105-105v-160c0-8.284 6.716-15 15-15h166l75 20 75-20h166c8.284 0 15 6.716 15 15v160z" fill="#524798"/></g><path d="m497 232h-166l-75 20v260h151l105-105v-160c0-8.284-6.715-15-15-15z" fill="#38336b"/><g><path d="m497 512h-90c-8.284 0-15-6.716-15-15 0-57.897 47.103-105 105-105 8.284 0 15 6.716 15 15v90c0 8.284-6.715 15-15 15z" fill="#ff8659"/></g><g><path d="m105 512h-90c-8.284 0-15-6.716-15-15v-90c0-8.284 6.716-15 15-15 57.897 0 105 47.103 105 105 0 8.284-6.715 15-15 15z" fill="#ffb454"/></g><path d="m316 382h-120c-8.284 0-15-6.716-15-15v-135h150v135c0 8.284-6.715 15-15 15z" fill="#ffb454"/><path d="m316 382h-60v-150h75v135c0 8.284-6.715 15-15 15z" fill="#ff8659"/><path d="m211 262h90v90h-90z" fill="#ffe196"/><path d="m256 262h45v90h-45z" fill="#ffb454"/><g><path d="m256 292c-8.284 0-15 6.716-15 15 0 8.284 6.716 15 15 15 8.284 0 15-6.716 15-15 0-8.284-6.715-15-15-15z" fill="#ffb454"/></g><path d="m256 292v30c8.284 0 15-6.716 15-15s-6.715-15-15-15z" fill="#ff8659"/><g><path d="m497 102h-482c-8.284 0-15-6.716-15-15v-42c0-24.813 20.187-45 45-45h422c24.813 0 45 20.187 45 45v42c0 8.284-6.715 15-15 15z" fill="#524798"/></g><g><path d="m467 0h-211v102h241c8.284 0 15-6.716 15-15v-42c0-24.813-20.186-45-45-45z" fill="#38336b"/></g></g></svg>